
<svg xmlns="http://www.w3.org/2000/svg" version="1.1" xmlns:xlink="http://www.w3.org/1999/xlink" preserveAspectRatio="none" x="0px" y="0px" width="190px" height="51px" viewBox="0 0 190 51">
<defs>
<g id="Mask_Sheep_Studios_Full_svg_svg164__Clip_Group__0_2_MASK_0_FILL">
<path fill="#FFFFFF" stroke="none" d="
M 383.95 383.95
L 383.95 0 0 0 0 383.95 383.95 383.95 Z"/>
</g>

<g id="Sheep_Studios_Full_svg_svg164__Clip_Group__0_Layer2_0_MEMBER_0_MEMBER_0_FILL">
<path fill="#231F20" stroke="none" d="
M 94.3 199.6
Q 94.3 198.85 93.85 198.45 93.45 198.05 92.65 198.05
L 92.45 198.05 92.25 198.4
Q 91.75 199.3 90.7 200.1 89.65 200.95 88.1 201.45 86.45 202 84.45 202 79.75 202 77.2 199.3 76.9 199.05 76.75 198.8 77.35 200.7 78.7 202.05 81.35 204.7 86 204.7 88.1 204.7 89.6 204.2 91.25 203.6 92.25 202.85 93.35 201.9 93.8 201.15 94.3 200.15 94.3 199.6
M 80.95 186.8
Q 79.75 188.15 79.55 190.55
L 81.8 190.55
Q 82 190.15 82.5 189.55 83.6 188.3 85.45 188.3 87.1 188.3 88.15 189.2 87.85 187.75 87 186.8 85.9 185.55 83.95 185.55 82.2 185.55 80.95 186.8 Z"/>
</g>

<g id="Sheep_Studios_Full_svg_svg164__Clip_Group__0_Layer2_0_MEMBER_1_MEMBER_0_FILL">
<path fill="#231F20" stroke="none" d="
M 79.55 193.3
Q 79.55 194.8 80.2 196.2 80.6 196.95 81.25 197.6
L 81.05 196 90.6 196 92.45 195.85 93.55 195.5
Q 94.6 194.9 94.6 193.1 94.6 191.15 93.55 189.2
L 92.65 187.85
Q 93.05 189.2 93.05 190.35 93.05 192.25 92 192.75 91.25 193.15 89.9 193.25
L 79.55 193.3 Z"/>
</g>

<g id="Sheep_Studios_Full_svg_svg164__Clip_Group__0_Layer2_0_MEMBER_2_MEMBER_0_FILL">
<path fill="#231F20" stroke="none" d="
M 115.95 199.6
Q 115.95 198.85 115.5 198.45 115.1 198.05 114.3 198.05
L 114.1 198.05 113.9 198.4
Q 113.4 199.3 112.35 200.1 111.3 200.95 109.75 201.45 108.1 202 106.1 202 101.5 202 98.85 199.3
L 98.4 198.8
Q 99 200.6 100.35 202.05 103 204.7 107.65 204.7 109.75 204.7 111.25 204.2 112.9 203.6 113.9 202.85 114.95 202.05 115.45 201.15 115.95 200.3 115.95 199.6
M 103.45 190.55
Q 103.65 190.15 104.15 189.55 105.25 188.3 107.15 188.3 108.75 188.3 109.85 189.2 109.45 187.6 108.65 186.8 107.55 185.55 105.6 185.55 103.85 185.55 102.6 186.8 101.4 188.15 101.2 190.55
L 103.45 190.55 Z"/>
</g>

<g id="Sheep_Studios_Full_svg_svg164__Clip_Group__0_Layer2_0_MEMBER_3_MEMBER_0_FILL">
<path fill="#231F20" stroke="none" d="
M 101.9 196.2
Q 102.25 196.95 102.9 197.6 102.75 196.85 102.75 196
L 112.25 196 114.1 195.85
Q 114.9 195.65 115.2 195.5 116.25 194.9 116.25 193.1 116.25 191.2 115.25 189.2
L 114.3 187.85
Q 114.7 189 114.7 190.35 114.7 192.25 113.65 192.75 112.95 193.15 111.55 193.25
L 101.2 193.3
Q 101.2 194.9 101.9 196.2 Z"/>
</g>

<g id="Sheep_Studios_Full_svg_svg164__Clip_Group__0_Layer2_0_MEMBER_4_MEMBER_0_FILL">
<path fill="#231F20" stroke="none" d="
M 138.75 194.8
Q 138.75 191.85 137.65 189.5 137.2 188.65 136.55 187.8 137.2 189.6 137.2 192.05 137.2 194.35 136.6 196.2 135.9 198.15 134.85 199.35 133.7 200.65 132.25 201.3 130.7 202 129 202 126.95 202 125.5 201.15 124.15 200.35 122.8 198.7
L 122.8 206
Q 122.8 209.2 120.5 209.2
L 119.75 209.1
Q 119.8 210.35 120.2 211.1 120.65 211.9 122 211.9 124.35 211.9 124.35 208.7
L 124.35 201.4
Q 125.6 203 127.05 203.85 128.4 204.7 130.55 204.7 132.35 204.7 133.75 204 135.35 203.3 136.35 202.05 137.5 200.75 138.1 198.9 138.75 196.85 138.75 194.8 Z"/>
</g>

<g id="Sheep_Studios_Full_svg_svg164__Clip_Group__0_Layer2_0_MEMBER_5_MEMBER_0_FILL">
<path fill="#231F20" stroke="none" d="
M 72.2 192.45
Q 72.2 191.1 72.05 189.95 71.8 188.75 71.35 188 70.9 187.25 70.35 186.7 70.4 186.9 70.5 187.25 70.7 188.2 70.7 189.7
L 70.7 199
Q 70.7 200.45 70 201.25 69.35 201.95 68.25 201.95
L 67.35 201.85
Q 67.45 204.7 69.75 204.7 70.9 204.7 71.55 203.95 72.2 203.25 72.2 201.75
L 72.2 192.45 Z"/>
</g>

<g id="Sheep_Studios_Full_svg_svg164__Clip_Group__0_Layer2_0_MEMBER_6_MEMBER_0_FILL">
<path fill="#231F20" stroke="none" d="
M 58.2 177.9
L 58.25 177.95 58.25 185.15
Q 59.05 184.2 59.75 183.7
L 59.75 180.7
Q 59.75 179.15 59.1 178.45 58.7 178.05 58.2 177.9 Z"/>
</g>

<g id="Sheep_Studios_Full_svg_svg164__Clip_Group__0_Layer2_0_MEMBER_7_MEMBER_0_FILL">
<path fill="#231F20" stroke="none" d="
M 59.75 187.05
Q 59.05 187.65 58.6 188.75 58.25 189.75 58.25 192.6
L 58.25 199
Q 58.25 200.4 57.6 201.2 56.9 202 55.75 202 55.65 202 54.9 201.85 54.9 204.7 57.3 204.7 58.45 204.7 59.1 203.95 59.75 203.25 59.75 201.75
L 59.75 195.35
Q 59.75 192.65 60.15 191.45 60.65 190.2 61.7 189.45 62.75 188.7 64.05 188.7 65.05 188.7 65.7 189.05 65.55 187.95 65.15 187.25 64.45 185.95 62.5 185.95
L 61.85 186.05 60.8 186.35
Q 60.35 186.6 59.75 187.05 Z"/>
</g>

<g id="Sheep_Studios_Full_svg_svg164__Clip_Group__0_Layer2_0_MEMBER_8_MEMBER_0_FILL">
<path fill="#231F20" stroke="none" d="
M 130.1 186.6
Q 129.15 185.85 127.8 185.85
L 126.9 185.95
Q 125.5 186.25 124.45 187.45
L 124.35 187.55
Q 123.05 189.15 123.05 192.1 123.05 195.05 124.4 196.6
L 124.8 197.05
Q 124.55 195.95 124.55 194.85 124.55 191.8 125.95 190.15 127.3 188.6 129.35 188.6 130.55 188.6 131.65 189.3
L 132.05 189.7
Q 131.95 189.15 131.75 188.7 131.15 187.35 130.1 186.6 Z"/>
</g>

<g id="Sheep_Studios_Full_svg_svg164__Clip_Group__0_Layer2_0_MEMBER_9_MEMBER_0_FILL">
<path fill="#231F20" stroke="none" d="
M 197.5 156.5
Q 199.55 156.8 200.65 157.45 203.5 158.9 204.9 162.2 206 164.85 205.6 167.7
L 205.5 168.55 206.2 169.1
Q 208.4 170.55 210 172.6 211.8 175 212.8 177.4 214.85 182.2 213.15 185.5 212.1 187.35 210.1 188.5
L 208.7 189.3 209.7 190.6
Q 211.7 193 212.45 196.1 213.95 202.1 211.3 206.15 209.85 208.35 207.2 209.75
L 206.3 210.2 206.4 211.15
Q 206.75 214.75 205.7 217.55 204.65 220.35 202.55 221.5 201.4 222.05 199.9 222.15
L 198.85 222.15 198.55 223.2
Q 197.8 225.9 196.1 227.05
L 195.65 227.3 195.65 221.65
Q 196.5 221 197.55 219.95 197.95 219.45 197.95 218.9 197.95 218.4 197.55 217.9 197.05 217.5 196.5 217.5 195.9 217.5 195.5 217.9 193.65 219.8 191.4 221.1 187.8 223.15 184.55 222.45 183.65 222.25 182.55 221.75 182 221.5 181.45 221.65 180.9 221.85 180.65 222.4 180.35 222.9 180.55 223.5 180.7 224.05 181.25 224.3 182.45 224.9 183.7 225.2
L 183.7 227.85
Q 182.35 227.85 181.45 227.7 178.35 227.25 176.35 225.65 173.8 223.65 173.15 220.45 173.05 222.75 173.85 224.6 174.4 225.9 175.3 227 170.65 227.15 166.5 225.85
L 166.5 223.8
Q 167.5 223.55 167.65 222.6 167.75 222 167.4 221.55 167.05 221.05 166.45 220.95 164.2 220.55 162.4 220.05 159.2 219.1 157.75 218.15 156.5 217.35 155.55 216.35 155.2 215.9 154.55 215.9 154 215.85 153.5 216.25 153.1 216.65 153.05 217.3 153.05 217.9 153.45 218.3 154.4 219.25 154.6 219.4
L 154.55 222.3
Q 152.35 221.5 150.2 219.6 148.35 217.9 146.95 215.25 147.4 217.75 148.8 219.85 150.95 223.2 154.6 224.6
L 154.6 237.9
Q 154.6 240.1 156.15 241.65 157.7 243.2 159.9 243.2
L 161.2 243.2
Q 163.4 243.2 164.95 241.65 166.5 240.1 166.5 237.9
L 166.5 228.85
Q 169.25 229.45 172.25 229.6 174.95 229.7 177.9 229.25 178.9 229.95 180.4 230.4
L 180.85 230.55 183.7 230.75 183.7 237.9
Q 183.7 240.1 185.25 241.65 186.8 243.2 189 243.2
L 190.3 243.2
Q 192.5 243.2 194.1 241.65 195.65 240.1 195.65 237.9
L 195.65 230.3
Q 196.85 230.05 197.75 229.4 199.95 227.8 201 224.95 202.55 224.75 203.9 224.05 206.65 222.6 208.1 219.3 209.6 216.05 209.35 211.85 212.1 210.15 213.7 207.7 217.05 202.6 215.25 195.35 214.45 192.35 212.9 190.1 214.7 188.7 215.65 186.85 217.95 182.55 215.6 176.65 214.3 173.4 212.25 170.8 210.7 168.8 208.55 167.2 208.75 163.9 207.55 161.05 206.3 158.1 204 156.2 202.9 155.35 201.95 154.85 198.7 153.3 194.5 154.55 191.05 155.55 188.7 158.35 193.2 155.9 197.5 156.5 Z"/>
</g>

<g id="Sheep_Studios_Full_svg_svg164__Clip_Group__0_Layer2_0_MEMBER_10_MEMBER_0_FILL">
<path fill="#231F20" stroke="none" d="
M 190.4 173.15
Q 190.05 171.55 188.45 170.7 186.9 169.9 185.05 170.3 183.35 170.65 182.25 172 178.15 168.35 171.95 168.35 165.7 168.35 161.6 172 160.5 170.65 158.8 170.3 156.95 169.9 155.4 170.7 153.85 171.55 153.45 173.15 153.1 174.75 154.15 176.2 155.2 177.6 157.05 178.05
L 157.85 178.15
Q 157.55 179.4 157.3 181.1
L 157.3 195.95
Q 157.3 197.8 157.9 199.75 158.85 202.95 161.15 205.25 164.55 208.6 169.25 209 170 209.1 170.55 208.6 170.8 208.35 170.8 207.2
L 170.8 203.05 168.55 202.9
Q 167.95 202.9 167.95 202.15 167.9 201.35 168.55 201.35
L 174.8 201.35
Q 175 201.4 175.4 201.45 175.9 201.6 175.8 202.25 175.7 202.9 175.2 202.9
L 172.7 203.05 172.7 207.2
Q 172.7 208.4 172.95 208.6 173.4 209.05 174.1 209.05
L 174.2 209.05
Q 179.3 208.65 182.7 205.25 186.55 201.35 186.55 195.95
L 186.55 181.1
Q 186.3 179.4 186 178.15
L 186.8 178.05
Q 188.65 177.6 189.7 176.2 190.75 174.75 190.4 173.15 Z"/>
</g>

<g id="Sheep_Studios_Full_svg_svg164__Clip_Group__0_Layer2_0_MEMBER_11_MEMBER_0_FILL">
<path fill="#231F20" stroke="none" d="
M 359.8 181.25
L 361.3 181.25 361.3 180.2 357.2 180.2 357.2 181.25 358.75 181.25 358.75 186.05 359.8 186.05 359.8 181.25
M 364.4 184.25
L 363.5 180.2 361.9 180.2 361.9 186.05 362.85 186.05 362.85 181.4 363.95 186.05 364.85 186.05 365.95 181.4 365.95 186.05 366.95 186.05 366.95 180.2 365.35 180.2 364.4 184.25 Z"/>
</g>

<g id="Sheep_Studios_Full_svg_svg164__Clip_Group__0_Layer2_0_MEMBER_12_MEMBER_0_FILL">
<path fill="#231F20" stroke="none" d="
M 267.6 194.05
Q 267.6 195.75 267.9 196.85 268.2 198.05 268.95 198.65
L 269.3 198.95
Q 269.15 198 269.15 196.75
L 269.15 189
Q 269.15 187.6 268.45 186.8 268.15 186.4 267.6 186.25
L 267.6 194.05
M 281.6 189
Q 281.6 187.5 280.95 186.8 280.55 186.4 280.1 186.25
L 280.1 200.35
Q 280.1 201.65 279.45 202.4 278.8 203.1 277.8 203.1
L 277.05 203 277.05 203.1
Q 277.05 204.45 277.7 205.1 278.4 205.85 279.35 205.85 280.35 205.85 280.95 205.15 281.6 204.5 281.6 203.05
L 281.6 189 Z"/>
</g>

<g id="Sheep_Studios_Full_svg_svg164__Clip_Group__0_Layer2_0_MEMBER_13_MEMBER_0_FILL">
<path fill="#231F20" stroke="none" d="
M 276.75 202.85
L 276.15 202.4
Q 275.6 201.7 275.55 200.7
L 275.55 199.75
Q 274.65 200.85 273.7 201.6
L 273.15 202
Q 272.3 202.5 271.6 202.7 270.55 203.05 269 203.05 267.1 203.05 265.85 202.35 265.15 202 264.6 201.45 264.8 202.35 265.2 203.05 265.95 204.35 267.35 205.05 268.8 205.8 270.5 205.8 272.05 205.8 273.1 205.45 274.15 205.1 275.2 204.3 275.9 203.8 276.75 202.85 Z"/>
</g>

<g id="Sheep_Studios_Full_svg_svg164__Clip_Group__0_Layer2_0_MEMBER_14_MEMBER_0_FILL">
<path fill="#231F20" stroke="none" d="
M 304.35 181.65
Q 304.35 180.3 303.75 179.55 303.45 179.2 302.85 178.95
L 302.85 200.35
Q 302.85 201.65 302.2 202.4 301.55 203.1 300.55 203.1 300.15 203.1 299.75 202.95
L 299.75 203.05
Q 299.75 204.45 300.4 205.1 301.1 205.85 302.05 205.85 303.1 205.85 303.7 205.15 304.35 204.5 304.35 203.05
L 304.35 181.65
M 290.75 192.65
Q 291.3 191.3 292.4 190.45 293.45 189.7 294.8 189.7 296.1 189.7 297.15 190.45
L 297.7 190.9 297.35 189.85
Q 296.7 188.45 295.65 187.7 294.5 187 293.25 187 291.95 187 290.9 187.75 289.85 188.5 289.25 189.9 288.65 191.35 288.65 193.2 288.65 195.1 289.3 196.55 289.7 197.5 290.45 198.25 290.2 197.1 290.2 195.9 290.2 194.15 290.75 192.65 Z"/>
</g>

<g id="Sheep_Studios_Full_svg_svg164__Clip_Group__0_Layer2_0_MEMBER_15_MEMBER_0_FILL">
<path fill="#231F20" stroke="none" d="
M 299.5 202.85
Q 299.15 202.7 298.9 202.4 298.25 201.7 298.25 200.4
L 298.25 199.85
Q 297.3 201 296.3 201.65
L 295.85 201.95
Q 295.2 202.4 294.25 202.75 293.2 203.1 291.8 203.1 290.05 203.1 288.6 202.35 287.2 201.7 286.1 200.35 286.55 201.7 287.55 203 288.6 204.35 290.1 205.1 291.6 205.85 293.35 205.85 294.45 205.85 295.75 205.5 296.8 205.15 297.8 204.4 298.7 203.8 299.5 202.85 Z"/>
</g>

<g id="Sheep_Studios_Full_svg_svg164__Clip_Group__0_Layer2_0_MEMBER_16_MEMBER_0_FILL">
<path fill="#231F20" stroke="none" d="
M 314.1 188.85
Q 314.1 187.6 313.4 186.8 313 186.4 312.55 186.25
L 312.55 200.15
Q 312.55 201.65 311.85 202.35 311.2 203.1 310.1 203.1 309.65 203.1 309.2 202.95 309.3 204.35 309.9 205.05 310.55 205.85 311.65 205.85 312.65 205.85 313.4 205.1 314.1 204.3 314.1 202.9
L 314.1 188.85 Z"/>
</g>

<g id="Sheep_Studios_Full_svg_svg164__Clip_Group__0_Layer2_0_MEMBER_17_MEMBER_0_FILL">
<path fill="#231F20" stroke="none" d="
M 260.3 189.65
Q 261.1 189.15 261.1 188.25 261.1 187.55 260.55 187 260.05 186.55 259.25 186.55
L 258.8 186.9
Q 257.9 187.3 256.55 187.3
L 255.65 187.3 255.75 197.95
Q 255.8 198.55 256.15 198.95 256.55 199.35 257.2 199.35
L 257.2 190 258.1 190
Q 259.6 190 260.3 189.65 Z"/>
</g>

<g id="Sheep_Studios_Full_svg_svg164__Clip_Group__0_Layer2_0_MEMBER_18_MEMBER_0_FILL">
<path fill="#231F20" stroke="none" d="
M 256.4 180.15
L 255.65 179.65 255.65 183.8 257.2 183.8 257.2 183.2
Q 257.2 182 257.05 181.3 256.9 180.65 256.4 180.15 Z"/>
</g>

<g id="Sheep_Studios_Full_svg_svg164__Clip_Group__0_Layer2_0_MEMBER_19_MEMBER_0_FILL">
<path fill="#231F20" stroke="none" d="
M 262.65 203.4
Q 262.65 202.7 262.15 202.25 261.7 201.8 261.1 201.8
L 260.7 201.8
Q 260.4 202.2 259.85 202.5 258.6 203.1 256.15 203.1 253.9 203.1 252.7 202.35
L 252.55 202.2 252.7 202.95
Q 253.1 204.3 254.25 205.05 255.35 205.85 257.7 205.85 260.1 205.85 261.35 205.2 262.65 204.6 262.65 203.4 Z"/>
</g>

<g id="Sheep_Studios_Full_svg_svg164__Clip_Group__0_Layer2_0_MEMBER_20_MEMBER_0_FILL">
<path fill="#231F20" stroke="none" d="
M 250.8 189.9
L 250.8 187.3 250.15 187.3 249.85 187.25
Q 249.55 187.7 249.55 188.25 249.55 189.1 250.1 189.5 250.25 189.7 250.8 189.9 Z"/>
</g>

<g id="Sheep_Studios_Full_svg_svg164__Clip_Group__0_Layer2_0_MEMBER_21_MEMBER_0_FILL">
<path fill="#FFFFFF" stroke="none" d="
M 277.05 202.45
L 276.75 202.85 277.05 203 277.05 202.45 Z"/>
</g>

<g id="Sheep_Studios_Full_svg_svg164__Clip_Group__0_Layer2_0_MEMBER_22_MEMBER_0_FILL">
<path fill="#FFFFFF" stroke="none" d="
M 299.75 202.6
L 299.5 202.85 299.75 202.95 299.75 202.6 Z"/>
</g>

<g id="Sheep_Studios_Full_svg_svg164__Clip_Group__0_Layer2_0_MEMBER_23_MEMBER_0_FILL">
<path fill="#231F20" stroke="none" d="
M 329.6 188.6
Q 328.25 186.95 326.05 186.95 324.7 186.95 323.55 187.7 322.5 188.45 321.9 189.85 321.3 191.35 321.3 193.25 321.3 195.15 321.9 196.55 322.35 197.65 323.1 198.4 322.8 197.3 322.8 195.95 322.8 194.05 323.4 192.6 324.05 191.1 325.1 190.4 326.1 189.7 327.6 189.7 329.45 189.7 330.6 190.8 330.3 189.55 329.6 188.6 Z"/>
</g>

<g id="Sheep_Studios_Full_svg_svg164__Clip_Group__0_Layer2_0_MEMBER_24_MEMBER_0_FILL">
<path fill="#231F20" stroke="none" d="
M 337.3 195.95
Q 337.3 193.8 336.6 191.95 336.05 190.5 335.15 189.35 335.75 191.15 335.75 193.25 335.75 195.45 335.1 197.25 334.45 199.05 333.15 200.4 331.8 201.75 330.05 202.4 328.25 203.1 326.05 203.1 323.9 203.1 322.1 202.4 320.25 201.65 319.05 200.35
L 318.55 199.8 318.6 199.95
Q 319.3 201.75 320.55 203.1 321.95 204.45 323.6 205.15 325.45 205.85 327.6 205.85 329.75 205.85 331.6 205.15 333.45 204.4 334.65 203.1 335.95 201.85 336.6 199.95 337.3 198.1 337.3 195.95 Z"/>
</g>

<g id="Sheep_Studios_Full_svg_svg164__Clip_Group__0_Layer2_0_MEMBER_25_MEMBER_0_FILL">
<path fill="#231F20" stroke="none" d="
M 342.25 193.5
Q 341.3 193.1 340.35 192.35 340.5 193.55 341.25 194.45 342.25 195.6 343.8 196.25 345.5 197 347.85 197.55 349.1 197.85 350.4 198.35
L 350.5 197.8
Q 350.5 196.55 349.55 195.95 348.7 195.4 346.35 194.85 343.5 194.1 342.25 193.5 Z"/>
</g>

<g id="Sheep_Studios_Full_svg_svg164__Clip_Group__0_Layer2_0_MEMBER_26_MEMBER_0_FILL">
<path fill="#231F20" stroke="none" d="
M 344.15 187
Q 343.3 187.55 343.3 188.4 343.3 189.2 343.9 189.65 344.45 190.05 345.1 190.3 345.4 189.9 345.65 189.75 346.5 189.2 347.85 189.2 349.25 189.2 349.9 189.6 350.65 190.05 351.2 190.75 351.95 191.65 352.4 192.05 352.95 192.45 353.65 192.45 354.75 192.45 355.25 191.9 355.8 191.4 355.8 190.55 355.8 189.7 355.3 189 355 188.5 354.3 187.9 354.2 188.75 353.75 189.2 353.2 189.7 352.15 189.7 351.3 189.7 350.85 189.3 350.2 188.75 349.65 188 349.1 187.3 348.35 186.85 347.55 186.45 346.35 186.45 345.1 186.45 344.15 187 Z"/>
</g>

<g id="Sheep_Studios_Full_svg_svg164__Clip_Group__0_Layer2_0_MEMBER_27_MEMBER_0_FILL">
<path fill="#231F20" stroke="none" d="
M 355.2 196.2
L 355.25 196.75
Q 355.25 198.75 354.25 200.2 353.3 201.6 351.35 202.35 349.5 203.1 346.7 203.1 344 203.1 342.25 202.3 341.05 201.8 340.15 201 340.2 201.95 341 203.05 341.9 204.25 343.75 205.05 345.75 205.85 348.25 205.85 350.95 205.85 352.9 205.1 354.85 204.3 355.8 202.95 356.75 201.5 356.75 199.5 356.75 198.15 356 197.1 355.8 196.8 355.2 196.2 Z"/>
</g>

<g id="Sheep_Studios_Full_svg_svg164__Clip_Group__0_Layer2_0_MEMBER_28_MEMBER_0_FILL">
<path fill="#231F20" stroke="none" d="
M 233 193.5
Q 232.05 193.1 231.1 192.35 231.25 193.55 232 194.45 233 195.6 234.5 196.25 236.15 196.95 238.6 197.55 239.95 197.85 241.1 198.35 241.25 198.15 241.25 197.8 241.25 196.55 240.25 195.95 239.35 195.4 237.05 194.85 234.2 194.1 233 193.5 Z"/>
</g>

<g id="Sheep_Studios_Full_svg_svg164__Clip_Group__0_Layer2_0_MEMBER_29_MEMBER_0_FILL">
<path fill="#231F20" stroke="none" d="
M 240.65 189.6
Q 241.4 190.05 241.95 190.75 242.7 191.65 243.15 192.05 243.7 192.45 244.4 192.45 245.45 192.45 246 191.9 246.55 191.35 246.55 190.55 246.55 189.7 246.05 189 245.7 188.45 245 187.9 245 188.65 244.45 189.2 243.95 189.7 242.9 189.7 242.05 189.7 241.6 189.3 240.95 188.75 240.4 188 239.85 187.3 239.1 186.85 238.3 186.45 237.1 186.45 235.75 186.45 234.9 187 234 187.6 234 188.4 234 189.15 234.65 189.65 235.05 190 235.85 190.3 236 190 236.4 189.75 237.25 189.2 238.6 189.2 240 189.2 240.65 189.6 Z"/>
</g>

<g id="Sheep_Studios_Full_svg_svg164__Clip_Group__0_Layer2_0_MEMBER_30_MEMBER_0_FILL">
<path fill="#231F20" stroke="none" d="
M 245.95 196.2
L 245.95 196.75
Q 245.95 198.8 245 200.2 244.05 201.6 242.1 202.35 240.25 203.1 237.45 203.1 234.75 203.1 232.95 202.3 231.75 201.8 230.85 201 231 202 231.75 203.05 232.55 204.2 234.5 205.05 236.5 205.85 238.95 205.85 241.7 205.85 243.65 205.1 245.55 204.35 246.5 202.95 247.5 201.4 247.5 199.5 247.5 198.15 246.75 197.1 246.55 196.8 245.95 196.2 Z"/>
</g>

<g id="Sheep_Studios_Full_svg_svg164__Clip_Group__0_Layer2_0_MEMBER_31_MEMBER_0_FILL">
<path fill="#231F20" stroke="none" d="
M 36.25 192.25
Q 35.15 191.8 34.35 191.05 34.6 192.4 35.25 193.2 36.25 194.35 37.8 195 39.5 195.75 41.85 196.3 43.45 196.65 44.4 197.1
L 44.5 196.55
Q 44.5 195.2 43.55 194.7 42.5 194.05 40.35 193.55 38 193 36.25 192.25 Z"/>
</g>

<g id="Sheep_Studios_Full_svg_svg164__Clip_Group__0_Layer2_0_MEMBER_32_MEMBER_0_FILL">
<path fill="#231F20" stroke="none" d="
M 39.1 189
L 39.7 188.45
Q 40.55 187.9 41.85 187.9 43.15 187.9 43.9 188.35 44.65 188.7 45.2 189.45 45.75 190.2 46.4 190.75 46.95 191.2 47.65 191.2 48.7 191.2 49.25 190.65 49.85 190.15 49.85 189.3 49.85 188.55 49.3 187.7 48.85 187.05 48.3 186.65 48.3 187.45 47.75 187.9 47.1 188.45 46.15 188.45 45.45 188.45 44.9 188 44.5 187.7 43.7 186.75 43.2 186.15 42.4 185.6 41.75 185.2 40.35 185.2 39 185.2 38.15 185.75 37.3 186.3 37.3 187.15 37.3 187.9 37.95 188.4 38.4 188.75 39.1 189 Z"/>
</g>

<g id="Sheep_Studios_Full_svg_svg164__Clip_Group__0_Layer2_0_MEMBER_33_MEMBER_0_FILL">
<path fill="#231F20" stroke="none" d="
M 49.2 194.95
L 49.25 195.5
Q 49.25 197.4 48.25 198.95 47.3 200.35 45.35 201.1 43.5 201.85 40.7 201.85 38.25 201.85 36.25 201.05 34.85 200.4 34.15 199.75 34.3 200.85 35 201.75 35.95 203.05 37.75 203.75 39.55 204.55 42.25 204.55 44.9 204.55 46.9 203.85 48.8 203.1 49.8 201.65 50.75 200.25 50.75 198.2 50.75 196.95 50.05 195.85 49.75 195.4 49.2 194.95 Z"/>
</g>

<g id="Sheep_Studios_Full_svg_svg164__Clip_Group__0_Layer2_0_MEMBER_34_MEMBER_0_FILL">
<path fill="#231F20" stroke="none" d="
M 313.05 180.35
Q 312.9 181.15 312.4 181.6 311.7 182.25 310.7 182.25 310.25 182.25 309.8 182.1
L 309.25 181.85
Q 309.4 182.75 309.95 183.2
L 310.15 183.35
Q 310.75 183.8 311.55 183.8
L 311.7 183.8
Q 312.7 183.8 313.35 183.2 314.1 182.55 314.1 181.45 314.1 180.3 313.35 179.7
L 313.05 179.5 313.1 179.85 313.05 180.35 Z"/>
</g>

<g id="Sheep_Studios_Full_svg_svg164__Clip_Group__0_Layer2_0_MEMBER_35_MEMBER_0_FILL">
<path fill="#231F20" stroke="none" d="
M 94.3 199.6
Q 94.3 198.85 93.85 198.45 93.45 198.05 92.65 198.05
L 92.45 198.05 92.25 198.4
Q 91.75 199.3 90.7 200.1 89.65 200.95 88.1 201.45 86.45 202 84.45 202 79.75 202 77.2 199.3 76.9 199.05 76.75 198.8 77.35 200.7 78.7 202.05 81.35 204.7 86 204.7 88.1 204.7 89.6 204.2 91.25 203.6 92.25 202.85 93.35 201.9 93.8 201.15 94.3 200.15 94.3 199.6
M 80.95 186.8
Q 79.75 188.15 79.55 190.55
L 81.8 190.55
Q 82 190.15 82.5 189.55 83.6 188.3 85.45 188.3 87.1 188.3 88.15 189.2 87.85 187.75 87 186.8 85.9 185.55 83.95 185.55 82.2 185.55 80.95 186.8 Z"/>
</g>

<g id="Sheep_Studios_Full_svg_svg164__Clip_Group__0_Layer2_0_MEMBER_36_MEMBER_0_FILL">
<path fill="#231F20" stroke="none" d="
M 79.55 193.3
Q 79.55 194.8 80.2 196.2 80.6 196.95 81.25 197.6
L 81.05 196 90.6 196 92.45 195.85 93.55 195.5
Q 94.6 194.9 94.6 193.1 94.6 191.15 93.55 189.2
L 92.65 187.85
Q 93.05 189.2 93.05 190.35 93.05 192.25 92 192.75 91.25 193.15 89.9 193.25
L 79.55 193.3 Z"/>
</g>

<g id="Sheep_Studios_Full_svg_svg164__Clip_Group__0_Layer2_0_MEMBER_37_MEMBER_0_FILL">
<path fill="#231F20" stroke="none" d="
M 115.95 199.6
Q 115.95 198.85 115.5 198.45 115.1 198.05 114.3 198.05
L 114.1 198.05 113.9 198.4
Q 113.4 199.3 112.35 200.1 111.3 200.95 109.75 201.45 108.1 202 106.1 202 101.5 202 98.85 199.3
L 98.4 198.8
Q 99 200.6 100.35 202.05 103 204.7 107.65 204.7 109.75 204.7 111.25 204.2 112.9 203.6 113.9 202.85 114.95 202.05 115.45 201.15 115.95 200.3 115.95 199.6
M 103.45 190.55
Q 103.65 190.15 104.15 189.55 105.25 188.3 107.15 188.3 108.75 188.3 109.85 189.2 109.45 187.6 108.65 186.8 107.55 185.55 105.6 185.55 103.85 185.55 102.6 186.8 101.4 188.15 101.2 190.55
L 103.45 190.55 Z"/>
</g>

<g id="Sheep_Studios_Full_svg_svg164__Clip_Group__0_Layer2_0_MEMBER_38_MEMBER_0_FILL">
<path fill="#231F20" stroke="none" d="
M 101.9 196.2
Q 102.25 196.95 102.9 197.6 102.75 196.85 102.75 196
L 112.25 196 114.1 195.85
Q 114.9 195.65 115.2 195.5 116.25 194.9 116.25 193.1 116.25 191.2 115.25 189.2
L 114.3 187.85
Q 114.7 189 114.7 190.35 114.7 192.25 113.65 192.75 112.95 193.15 111.55 193.25
L 101.2 193.3
Q 101.2 194.9 101.9 196.2 Z"/>
</g>

<g id="Sheep_Studios_Full_svg_svg164__Clip_Group__0_Layer2_0_MEMBER_39_MEMBER_0_FILL">
<path fill="#231F20" stroke="none" d="
M 138.75 194.8
Q 138.75 191.85 137.65 189.5 137.2 188.65 136.55 187.8 137.2 189.6 137.2 192.05 137.2 194.35 136.6 196.2 135.9 198.15 134.85 199.35 133.7 200.65 132.25 201.3 130.7 202 129 202 126.95 202 125.5 201.15 124.15 200.35 122.8 198.7
L 122.8 206
Q 122.8 209.2 120.5 209.2
L 119.75 209.1
Q 119.8 210.35 120.2 211.1 120.65 211.9 122 211.9 124.35 211.9 124.35 208.7
L 124.35 201.4
Q 125.6 203 127.05 203.85 128.4 204.7 130.55 204.7 132.35 204.7 133.75 204 135.35 203.3 136.35 202.05 137.5 200.75 138.1 198.9 138.75 196.85 138.75 194.8 Z"/>
</g>

<g id="Sheep_Studios_Full_svg_svg164__Clip_Group__0_Layer2_0_MEMBER_40_MEMBER_0_FILL">
<path fill="#231F20" stroke="none" d="
M 72.2 192.45
Q 72.2 191.1 72.05 189.95 71.8 188.75 71.35 188 70.9 187.25 70.35 186.7 70.4 186.9 70.5 187.25 70.7 188.2 70.7 189.7
L 70.7 199
Q 70.7 200.45 70 201.25 69.35 201.95 68.25 201.95
L 67.35 201.85
Q 67.45 204.7 69.75 204.7 70.9 204.7 71.55 203.95 72.2 203.25 72.2 201.75
L 72.2 192.45 Z"/>
</g>

<g id="Sheep_Studios_Full_svg_svg164__Clip_Group__0_Layer2_0_MEMBER_41_MEMBER_0_FILL">
<path fill="#231F20" stroke="none" d="
M 58.2 177.9
L 58.25 177.95 58.25 185.15
Q 59.05 184.2 59.75 183.7
L 59.75 180.7
Q 59.75 179.15 59.1 178.45 58.7 178.05 58.2 177.9 Z"/>
</g>

<g id="Sheep_Studios_Full_svg_svg164__Clip_Group__0_Layer2_0_MEMBER_42_MEMBER_0_FILL">
<path fill="#231F20" stroke="none" d="
M 59.75 187.05
Q 59.05 187.65 58.6 188.75 58.25 189.75 58.25 192.6
L 58.25 199
Q 58.25 200.4 57.6 201.2 56.9 202 55.75 202 55.65 202 54.9 201.85 54.9 204.7 57.3 204.7 58.45 204.7 59.1 203.95 59.75 203.25 59.75 201.75
L 59.75 195.35
Q 59.75 192.65 60.15 191.45 60.65 190.2 61.7 189.45 62.75 188.7 64.05 188.7 65.05 188.7 65.7 189.05 65.55 187.95 65.15 187.25 64.45 185.95 62.5 185.95
L 61.85 186.05 60.8 186.35
Q 60.35 186.6 59.75 187.05 Z"/>
</g>

<g id="Sheep_Studios_Full_svg_svg164__Clip_Group__0_Layer2_0_MEMBER_43_MEMBER_0_FILL">
<path fill="#231F20" stroke="none" d="
M 130.1 186.6
Q 129.15 185.85 127.8 185.85
L 126.9 185.95
Q 125.5 186.25 124.45 187.45
L 124.35 187.55
Q 123.05 189.15 123.05 192.1 123.05 195.05 124.4 196.6
L 124.8 197.05
Q 124.55 195.95 124.55 194.85 124.55 191.8 125.95 190.15 127.3 188.6 129.35 188.6 130.55 188.6 131.65 189.3
L 132.05 189.7
Q 131.95 189.15 131.75 188.7 131.15 187.35 130.1 186.6 Z"/>
</g>

<g id="Sheep_Studios_Full_svg_svg164__Clip_Group__0_Layer2_0_MEMBER_44_MEMBER_0_FILL">
<path fill="#231F20" stroke="none" d="
M 197.5 156.5
Q 199.55 156.8 200.65 157.45 203.5 158.9 204.9 162.2 206 164.85 205.6 167.7
L 205.5 168.55 206.2 169.1
Q 208.4 170.55 210 172.6 211.8 175 212.8 177.4 214.85 182.2 213.15 185.5 212.1 187.35 210.1 188.5
L 208.7 189.3 209.7 190.6
Q 211.7 193 212.45 196.1 213.95 202.1 211.3 206.15 209.85 208.35 207.2 209.75
L 206.3 210.2 206.4 211.15
Q 206.75 214.75 205.7 217.55 204.65 220.35 202.55 221.5 201.4 222.05 199.9 222.15
L 198.85 222.15 198.55 223.2
Q 197.8 225.9 196.1 227.05
L 195.65 227.3 195.65 221.65
Q 196.5 221 197.55 219.95 197.95 219.45 197.95 218.9 197.95 218.4 197.55 217.9 197.05 217.5 196.5 217.5 195.9 217.5 195.5 217.9 193.65 219.8 191.4 221.1 187.8 223.15 184.55 222.45 183.65 222.25 182.55 221.75 182 221.5 181.45 221.65 180.9 221.85 180.65 222.4 180.35 222.9 180.55 223.5 180.7 224.05 181.25 224.3 182.45 224.9 183.7 225.2
L 183.7 227.85
Q 182.35 227.85 181.45 227.7 178.35 227.25 176.35 225.65 173.8 223.65 173.15 220.45 173.05 222.75 173.85 224.6 174.4 225.9 175.3 227 170.65 227.15 166.5 225.85
L 166.5 223.8
Q 167.5 223.55 167.65 222.6 167.75 222 167.4 221.55 167.05 221.05 166.45 220.95 164.2 220.55 162.4 220.05 159.2 219.1 157.75 218.15 156.5 217.35 155.55 216.35 155.2 215.9 154.55 215.9 154 215.85 153.5 216.25 153.1 216.65 153.05 217.3 153.05 217.9 153.45 218.3 154.4 219.25 154.6 219.4
L 154.55 222.3
Q 152.35 221.5 150.2 219.6 148.35 217.9 146.95 215.25 147.4 217.75 148.8 219.85 150.95 223.2 154.6 224.6
L 154.6 237.9
Q 154.6 240.1 156.15 241.65 157.7 243.2 159.9 243.2
L 161.2 243.2
Q 163.4 243.2 164.95 241.65 166.5 240.1 166.5 237.9
L 166.5 228.85
Q 169.25 229.45 172.25 229.6 174.95 229.7 177.9 229.25 178.9 229.95 180.4 230.4
L 180.85 230.55 183.7 230.75 183.7 237.9
Q 183.7 240.1 185.25 241.65 186.8 243.2 189 243.2
L 190.3 243.2
Q 192.5 243.2 194.1 241.65 195.65 240.1 195.65 237.9
L 195.65 230.3
Q 196.85 230.05 197.75 229.4 199.95 227.8 201 224.95 202.55 224.75 203.9 224.05 206.65 222.6 208.1 219.3 209.6 216.05 209.35 211.85 212.1 210.15 213.7 207.7 217.05 202.6 215.25 195.35 214.45 192.35 212.9 190.1 214.7 188.7 215.65 186.85 217.95 182.55 215.6 176.65 214.3 173.4 212.25 170.8 210.7 168.8 208.55 167.2 208.75 163.9 207.55 161.05 206.3 158.1 204 156.2 202.9 155.35 201.95 154.85 198.7 153.3 194.5 154.55 191.05 155.55 188.7 158.35 193.2 155.9 197.5 156.5 Z"/>
</g>

<g id="Sheep_Studios_Full_svg_svg164__Clip_Group__0_Layer2_0_MEMBER_45_MEMBER_0_FILL">
<path fill="#231F20" stroke="none" d="
M 190.4 173.15
Q 190.05 171.55 188.45 170.7 186.9 169.9 185.05 170.3 183.35 170.65 182.25 172 178.15 168.35 171.95 168.35 165.7 168.35 161.6 172 160.5 170.65 158.8 170.3 156.95 169.9 155.4 170.7 153.85 171.55 153.45 173.15 153.1 174.75 154.15 176.2 155.2 177.6 157.05 178.05
L 157.85 178.15
Q 157.55 179.4 157.3 181.1
L 157.3 195.95
Q 157.3 197.8 157.9 199.75 158.85 202.95 161.15 205.25 164.55 208.6 169.25 209 170 209.1 170.55 208.6 170.8 208.35 170.8 207.2
L 170.8 203.05 168.55 202.9
Q 167.95 202.9 167.95 202.15 167.9 201.35 168.55 201.35
L 174.8 201.35
Q 175 201.4 175.4 201.45 175.9 201.6 175.8 202.25 175.7 202.9 175.2 202.9
L 172.7 203.05 172.7 207.2
Q 172.7 208.4 172.95 208.6 173.4 209.05 174.1 209.05
L 174.2 209.05
Q 179.3 208.65 182.7 205.25 186.55 201.35 186.55 195.95
L 186.55 181.1
Q 186.3 179.4 186 178.15
L 186.8 178.05
Q 188.65 177.6 189.7 176.2 190.75 174.75 190.4 173.15 Z"/>
</g>

<g id="Sheep_Studios_Full_svg_svg164__Clip_Group__0_Layer2_0_MEMBER_46_MEMBER_0_FILL">
<path fill="#231F20" stroke="none" d="
M 359.8 181.25
L 361.3 181.25 361.3 180.2 357.2 180.2 357.2 181.25 358.75 181.25 358.75 186.05 359.8 186.05 359.8 181.25
M 364.4 184.25
L 363.5 180.2 361.9 180.2 361.9 186.05 362.85 186.05 362.85 181.4 363.95 186.05 364.85 186.05 365.95 181.4 365.95 186.05 366.95 186.05 366.95 180.2 365.35 180.2 364.4 184.25 Z"/>
</g>

<g id="Sheep_Studios_Full_svg_svg164__Clip_Group__0_Layer2_0_MEMBER_47_MEMBER_0_FILL">
<path fill="#231F20" stroke="none" d="
M 267.6 194.05
Q 267.6 195.75 267.9 196.85 268.2 198.05 268.95 198.65
L 269.3 198.95
Q 269.15 198 269.15 196.75
L 269.15 189
Q 269.15 187.6 268.45 186.8 268.15 186.4 267.6 186.25
L 267.6 194.05
M 281.6 189
Q 281.6 187.5 280.95 186.8 280.55 186.4 280.1 186.25
L 280.1 200.35
Q 280.1 201.65 279.45 202.4 278.8 203.1 277.8 203.1
L 277.05 203 277.05 203.1
Q 277.05 204.45 277.7 205.1 278.4 205.85 279.35 205.85 280.35 205.85 280.95 205.15 281.6 204.5 281.6 203.05
L 281.6 189 Z"/>
</g>

<g id="Sheep_Studios_Full_svg_svg164__Clip_Group__0_Layer2_0_MEMBER_48_MEMBER_0_FILL">
<path fill="#231F20" stroke="none" d="
M 276.75 202.85
L 276.15 202.4
Q 275.6 201.7 275.55 200.7
L 275.55 199.75
Q 274.65 200.85 273.7 201.6
L 273.15 202
Q 272.3 202.5 271.6 202.7 270.55 203.05 269 203.05 267.1 203.05 265.85 202.35 265.15 202 264.6 201.45 264.8 202.35 265.2 203.05 265.95 204.35 267.35 205.05 268.8 205.8 270.5 205.8 272.05 205.8 273.1 205.45 274.15 205.1 275.2 204.3 275.9 203.8 276.75 202.85 Z"/>
</g>

<g id="Sheep_Studios_Full_svg_svg164__Clip_Group__0_Layer2_0_MEMBER_49_MEMBER_0_FILL">
<path fill="#231F20" stroke="none" d="
M 304.35 181.65
Q 304.35 180.3 303.75 179.55 303.45 179.2 302.85 178.95
L 302.85 200.35
Q 302.85 201.65 302.2 202.4 301.55 203.1 300.55 203.1 300.15 203.1 299.75 202.95
L 299.75 203.05
Q 299.75 204.45 300.4 205.1 301.1 205.85 302.05 205.85 303.1 205.85 303.7 205.15 304.35 204.5 304.35 203.05
L 304.35 181.65
M 290.75 192.65
Q 291.3 191.3 292.4 190.45 293.45 189.7 294.8 189.7 296.1 189.7 297.15 190.45
L 297.7 190.9 297.35 189.85
Q 296.7 188.45 295.65 187.7 294.5 187 293.25 187 291.95 187 290.9 187.75 289.85 188.5 289.25 189.9 288.65 191.35 288.65 193.2 288.65 195.1 289.3 196.55 289.7 197.5 290.45 198.25 290.2 197.1 290.2 195.9 290.2 194.15 290.75 192.65 Z"/>
</g>

<g id="Sheep_Studios_Full_svg_svg164__Clip_Group__0_Layer2_0_MEMBER_50_MEMBER_0_FILL">
<path fill="#231F20" stroke="none" d="
M 299.5 202.85
Q 299.15 202.7 298.9 202.4 298.25 201.7 298.25 200.4
L 298.25 199.85
Q 297.3 201 296.3 201.65
L 295.85 201.95
Q 295.2 202.4 294.25 202.75 293.2 203.1 291.8 203.1 290.05 203.1 288.6 202.35 287.2 201.7 286.1 200.35 286.55 201.7 287.55 203 288.6 204.35 290.1 205.1 291.6 205.85 293.35 205.85 294.45 205.85 295.75 205.5 296.8 205.15 297.8 204.4 298.7 203.8 299.5 202.85 Z"/>
</g>

<g id="Sheep_Studios_Full_svg_svg164__Clip_Group__0_Layer2_0_MEMBER_51_MEMBER_0_FILL">
<path fill="#231F20" stroke="none" d="
M 314.1 188.85
Q 314.1 187.6 313.4 186.8 313 186.4 312.55 186.25
L 312.55 200.15
Q 312.55 201.65 311.85 202.35 311.2 203.1 310.1 203.1 309.65 203.1 309.2 202.95 309.3 204.35 309.9 205.05 310.55 205.85 311.65 205.85 312.65 205.85 313.4 205.1 314.1 204.3 314.1 202.9
L 314.1 188.85 Z"/>
</g>

<g id="Sheep_Studios_Full_svg_svg164__Clip_Group__0_Layer2_0_MEMBER_52_MEMBER_0_FILL">
<path fill="#231F20" stroke="none" d="
M 260.3 189.65
Q 261.1 189.15 261.1 188.25 261.1 187.55 260.55 187 260.05 186.55 259.25 186.55
L 258.8 186.9
Q 257.9 187.3 256.55 187.3
L 255.65 187.3 255.75 197.95
Q 255.8 198.55 256.15 198.95 256.55 199.35 257.2 199.35
L 257.2 190 258.1 190
Q 259.6 190 260.3 189.65 Z"/>
</g>

<g id="Sheep_Studios_Full_svg_svg164__Clip_Group__0_Layer2_0_MEMBER_53_MEMBER_0_FILL">
<path fill="#231F20" stroke="none" d="
M 256.4 180.15
L 255.65 179.65 255.65 183.8 257.2 183.8 257.2 183.2
Q 257.2 182 257.05 181.3 256.9 180.65 256.4 180.15 Z"/>
</g>

<g id="Sheep_Studios_Full_svg_svg164__Clip_Group__0_Layer2_0_MEMBER_54_MEMBER_0_FILL">
<path fill="#231F20" stroke="none" d="
M 262.65 203.4
Q 262.65 202.7 262.15 202.25 261.7 201.8 261.1 201.8
L 260.7 201.8
Q 260.4 202.2 259.85 202.5 258.6 203.1 256.15 203.1 253.9 203.1 252.7 202.35
L 252.55 202.2 252.7 202.95
Q 253.1 204.3 254.25 205.05 255.35 205.85 257.7 205.85 260.1 205.85 261.35 205.2 262.65 204.6 262.65 203.4 Z"/>
</g>

<g id="Sheep_Studios_Full_svg_svg164__Clip_Group__0_Layer2_0_MEMBER_55_MEMBER_0_FILL">
<path fill="#231F20" stroke="none" d="
M 250.8 189.9
L 250.8 187.3 250.15 187.3 249.85 187.25
Q 249.55 187.7 249.55 188.25 249.55 189.1 250.1 189.5 250.25 189.7 250.8 189.9 Z"/>
</g>

<g id="Sheep_Studios_Full_svg_svg164__Clip_Group__0_Layer2_0_MEMBER_56_MEMBER_0_FILL">
<path fill="#FFFFFF" stroke="none" d="
M 277.05 202.45
L 276.75 202.85 277.05 203 277.05 202.45 Z"/>
</g>

<g id="Sheep_Studios_Full_svg_svg164__Clip_Group__0_Layer2_0_MEMBER_57_MEMBER_0_FILL">
<path fill="#FFFFFF" stroke="none" d="
M 299.75 202.6
L 299.5 202.85 299.75 202.95 299.75 202.6 Z"/>
</g>

<g id="Sheep_Studios_Full_svg_svg164__Clip_Group__0_Layer2_0_MEMBER_58_MEMBER_0_FILL">
<path fill="#231F20" stroke="none" d="
M 329.6 188.6
Q 328.25 186.95 326.05 186.95 324.7 186.95 323.55 187.7 322.5 188.45 321.9 189.85 321.3 191.35 321.3 193.25 321.3 195.15 321.9 196.55 322.35 197.65 323.1 198.4 322.8 197.3 322.8 195.95 322.8 194.05 323.4 192.6 324.05 191.1 325.1 190.4 326.1 189.7 327.6 189.7 329.45 189.7 330.6 190.8 330.3 189.55 329.6 188.6 Z"/>
</g>

<g id="Sheep_Studios_Full_svg_svg164__Clip_Group__0_Layer2_0_MEMBER_59_MEMBER_0_FILL">
<path fill="#231F20" stroke="none" d="
M 337.3 195.95
Q 337.3 193.8 336.6 191.95 336.05 190.5 335.15 189.35 335.75 191.15 335.75 193.25 335.75 195.45 335.1 197.25 334.45 199.05 333.15 200.4 331.8 201.75 330.05 202.4 328.25 203.1 326.05 203.1 323.9 203.1 322.1 202.4 320.25 201.65 319.05 200.35
L 318.55 199.8 318.6 199.95
Q 319.3 201.75 320.55 203.1 321.95 204.45 323.6 205.15 325.45 205.85 327.6 205.85 329.75 205.85 331.6 205.15 333.45 204.4 334.65 203.1 335.95 201.85 336.6 199.95 337.3 198.1 337.3 195.95 Z"/>
</g>

<g id="Sheep_Studios_Full_svg_svg164__Clip_Group__0_Layer2_0_MEMBER_60_MEMBER_0_FILL">
<path fill="#231F20" stroke="none" d="
M 342.25 193.5
Q 341.3 193.1 340.35 192.35 340.5 193.55 341.25 194.45 342.25 195.6 343.8 196.25 345.5 197 347.85 197.55 349.1 197.85 350.4 198.35
L 350.5 197.8
Q 350.5 196.55 349.55 195.95 348.7 195.4 346.35 194.85 343.5 194.1 342.25 193.5 Z"/>
</g>

<g id="Sheep_Studios_Full_svg_svg164__Clip_Group__0_Layer2_0_MEMBER_61_MEMBER_0_FILL">
<path fill="#231F20" stroke="none" d="
M 344.15 187
Q 343.3 187.55 343.3 188.4 343.3 189.2 343.9 189.65 344.45 190.05 345.1 190.3 345.4 189.9 345.65 189.75 346.5 189.2 347.85 189.2 349.25 189.2 349.9 189.6 350.65 190.05 351.2 190.75 351.95 191.65 352.4 192.05 352.95 192.45 353.65 192.45 354.75 192.45 355.25 191.9 355.8 191.4 355.8 190.55 355.8 189.7 355.3 189 355 188.5 354.3 187.9 354.2 188.75 353.75 189.2 353.2 189.7 352.15 189.7 351.3 189.7 350.85 189.3 350.2 188.75 349.65 188 349.1 187.3 348.35 186.85 347.55 186.45 346.35 186.45 345.1 186.45 344.15 187 Z"/>
</g>

<g id="Sheep_Studios_Full_svg_svg164__Clip_Group__0_Layer2_0_MEMBER_62_MEMBER_0_FILL">
<path fill="#231F20" stroke="none" d="
M 355.2 196.2
L 355.25 196.75
Q 355.25 198.75 354.25 200.2 353.3 201.6 351.35 202.35 349.5 203.1 346.7 203.1 344 203.1 342.25 202.3 341.05 201.8 340.15 201 340.2 201.95 341 203.05 341.9 204.25 343.75 205.05 345.75 205.85 348.25 205.85 350.95 205.85 352.9 205.1 354.85 204.3 355.8 202.95 356.75 201.5 356.75 199.5 356.75 198.15 356 197.1 355.8 196.8 355.2 196.2 Z"/>
</g>

<g id="Sheep_Studios_Full_svg_svg164__Clip_Group__0_Layer2_0_MEMBER_63_MEMBER_0_FILL">
<path fill="#231F20" stroke="none" d="
M 233 193.5
Q 232.05 193.1 231.1 192.35 231.25 193.55 232 194.45 233 195.6 234.5 196.25 236.15 196.95 238.6 197.55 239.95 197.85 241.1 198.35 241.25 198.15 241.25 197.8 241.25 196.55 240.25 195.95 239.35 195.4 237.05 194.85 234.2 194.1 233 193.5 Z"/>
</g>

<g id="Sheep_Studios_Full_svg_svg164__Clip_Group__0_Layer2_0_MEMBER_64_MEMBER_0_FILL">
<path fill="#231F20" stroke="none" d="
M 240.65 189.6
Q 241.4 190.05 241.95 190.75 242.7 191.65 243.15 192.05 243.7 192.45 244.4 192.45 245.45 192.45 246 191.9 246.55 191.35 246.55 190.55 246.55 189.7 246.05 189 245.7 188.45 245 187.9 245 188.65 244.45 189.2 243.95 189.7 242.9 189.7 242.05 189.7 241.6 189.3 240.95 188.75 240.4 188 239.85 187.3 239.1 186.85 238.3 186.45 237.1 186.45 235.75 186.45 234.9 187 234 187.6 234 188.4 234 189.15 234.65 189.65 235.05 190 235.85 190.3 236 190 236.4 189.75 237.25 189.2 238.6 189.2 240 189.2 240.65 189.6 Z"/>
</g>

<g id="Sheep_Studios_Full_svg_svg164__Clip_Group__0_Layer2_0_MEMBER_65_MEMBER_0_FILL">
<path fill="#231F20" stroke="none" d="
M 245.95 196.2
L 245.95 196.75
Q 245.95 198.8 245 200.2 244.05 201.6 242.1 202.35 240.25 203.1 237.45 203.1 234.75 203.1 232.95 202.3 231.75 201.8 230.85 201 231 202 231.75 203.05 232.55 204.2 234.5 205.05 236.5 205.85 238.95 205.85 241.7 205.85 243.65 205.1 245.55 204.35 246.5 202.95 247.5 201.4 247.5 199.5 247.5 198.15 246.75 197.1 246.55 196.8 245.95 196.2 Z"/>
</g>

<g id="Sheep_Studios_Full_svg_svg164__Clip_Group__0_Layer2_0_MEMBER_66_MEMBER_0_FILL">
<path fill="#231F20" stroke="none" d="
M 36.25 192.25
Q 35.15 191.8 34.35 191.05 34.6 192.4 35.25 193.2 36.25 194.35 37.8 195 39.5 195.75 41.85 196.3 43.45 196.65 44.4 197.1
L 44.5 196.55
Q 44.5 195.2 43.55 194.7 42.5 194.05 40.35 193.55 38 193 36.25 192.25 Z"/>
</g>

<g id="Sheep_Studios_Full_svg_svg164__Clip_Group__0_Layer2_0_MEMBER_67_MEMBER_0_FILL">
<path fill="#231F20" stroke="none" d="
M 39.1 189
L 39.7 188.45
Q 40.55 187.9 41.85 187.9 43.15 187.9 43.9 188.35 44.65 188.7 45.2 189.45 45.75 190.2 46.4 190.75 46.95 191.2 47.65 191.2 48.7 191.2 49.25 190.65 49.85 190.15 49.85 189.3 49.85 188.55 49.3 187.7 48.85 187.05 48.3 186.65 48.3 187.45 47.75 187.9 47.1 188.45 46.15 188.45 45.45 188.45 44.9 188 44.5 187.7 43.7 186.75 43.2 186.15 42.4 185.6 41.75 185.2 40.35 185.2 39 185.2 38.15 185.75 37.3 186.3 37.3 187.15 37.3 187.9 37.95 188.4 38.4 188.75 39.1 189 Z"/>
</g>

<g id="Sheep_Studios_Full_svg_svg164__Clip_Group__0_Layer2_0_MEMBER_68_MEMBER_0_FILL">
<path fill="#231F20" stroke="none" d="
M 49.2 194.95
L 49.25 195.5
Q 49.25 197.4 48.25 198.95 47.3 200.35 45.35 201.1 43.5 201.85 40.7 201.85 38.25 201.85 36.25 201.05 34.85 200.4 34.15 199.75 34.3 200.85 35 201.75 35.95 203.05 37.75 203.75 39.55 204.55 42.25 204.55 44.9 204.55 46.9 203.85 48.8 203.1 49.8 201.65 50.75 200.25 50.75 198.2 50.75 196.95 50.05 195.85 49.75 195.4 49.2 194.95 Z"/>
</g>

<g id="Sheep_Studios_Full_svg_svg164__Clip_Group__0_Layer2_0_MEMBER_69_MEMBER_0_FILL">
<path fill="#231F20" stroke="none" d="
M 313.05 180.35
Q 312.9 181.15 312.4 181.6 311.7 182.25 310.7 182.25 310.25 182.25 309.8 182.1
L 309.25 181.85
Q 309.4 182.75 309.95 183.2
L 310.15 183.35
Q 310.75 183.8 311.55 183.8
L 311.7 183.8
Q 312.7 183.8 313.35 183.2 314.1 182.55 314.1 181.45 314.1 180.3 313.35 179.7
L 313.05 179.5 313.1 179.85 313.05 180.35 Z"/>
</g>
</defs>

<g transform="matrix( 0.57098388671875, 0, 0, 0.5717315673828125, -19.5,-88.05) ">
<mask id="Mask_Mask_1">
<g transform="matrix( 1, 0, 0, 1, 0,0) ">
<use xlink:href="#Mask_Sheep_Studios_Full_svg_svg164__Clip_Group__0_2_MASK_0_FILL"/>
</g>
</mask>

<g mask="url(#Mask_Mask_1)">
<g transform="matrix( 1, 0, 0, 1, 0,0) ">
<use xlink:href="#Sheep_Studios_Full_svg_svg164__Clip_Group__0_Layer2_0_MEMBER_0_MEMBER_0_FILL"/>
</g>

<g transform="matrix( 1, 0, 0, 1, 0,0) ">
<use xlink:href="#Sheep_Studios_Full_svg_svg164__Clip_Group__0_Layer2_0_MEMBER_1_MEMBER_0_FILL"/>
</g>

<g transform="matrix( 1, 0, 0, 1, 0,0) ">
<use xlink:href="#Sheep_Studios_Full_svg_svg164__Clip_Group__0_Layer2_0_MEMBER_2_MEMBER_0_FILL"/>
</g>

<g transform="matrix( 1, 0, 0, 1, 0,0) ">
<use xlink:href="#Sheep_Studios_Full_svg_svg164__Clip_Group__0_Layer2_0_MEMBER_3_MEMBER_0_FILL"/>
</g>

<g transform="matrix( 1, 0, 0, 1, 0,0) ">
<use xlink:href="#Sheep_Studios_Full_svg_svg164__Clip_Group__0_Layer2_0_MEMBER_4_MEMBER_0_FILL"/>
</g>

<g transform="matrix( 1, 0, 0, 1, 0,0) ">
<use xlink:href="#Sheep_Studios_Full_svg_svg164__Clip_Group__0_Layer2_0_MEMBER_5_MEMBER_0_FILL"/>
</g>

<g transform="matrix( 1, 0, 0, 1, 0,0) ">
<use xlink:href="#Sheep_Studios_Full_svg_svg164__Clip_Group__0_Layer2_0_MEMBER_6_MEMBER_0_FILL"/>
</g>

<g transform="matrix( 1, 0, 0, 1, 0,0) ">
<use xlink:href="#Sheep_Studios_Full_svg_svg164__Clip_Group__0_Layer2_0_MEMBER_7_MEMBER_0_FILL"/>
</g>

<g transform="matrix( 1, 0, 0, 1, 0,0) ">
<use xlink:href="#Sheep_Studios_Full_svg_svg164__Clip_Group__0_Layer2_0_MEMBER_8_MEMBER_0_FILL"/>
</g>

<g transform="matrix( 1, 0, 0, 1, 0,0) ">
<use xlink:href="#Sheep_Studios_Full_svg_svg164__Clip_Group__0_Layer2_0_MEMBER_9_MEMBER_0_FILL"/>
</g>

<g transform="matrix( 1, 0, 0, 1, 0,0) ">
<use xlink:href="#Sheep_Studios_Full_svg_svg164__Clip_Group__0_Layer2_0_MEMBER_10_MEMBER_0_FILL"/>
</g>

<g transform="matrix( 1, 0, 0, 1, 0,0) ">
<use xlink:href="#Sheep_Studios_Full_svg_svg164__Clip_Group__0_Layer2_0_MEMBER_11_MEMBER_0_FILL"/>
</g>

<g transform="matrix( 1, 0, 0, 1, 0,0) ">
<use xlink:href="#Sheep_Studios_Full_svg_svg164__Clip_Group__0_Layer2_0_MEMBER_12_MEMBER_0_FILL"/>
</g>

<g transform="matrix( 1, 0, 0, 1, 0,0) ">
<use xlink:href="#Sheep_Studios_Full_svg_svg164__Clip_Group__0_Layer2_0_MEMBER_13_MEMBER_0_FILL"/>
</g>

<g transform="matrix( 1, 0, 0, 1, 0,0) ">
<use xlink:href="#Sheep_Studios_Full_svg_svg164__Clip_Group__0_Layer2_0_MEMBER_14_MEMBER_0_FILL"/>
</g>

<g transform="matrix( 1, 0, 0, 1, 0,0) ">
<use xlink:href="#Sheep_Studios_Full_svg_svg164__Clip_Group__0_Layer2_0_MEMBER_15_MEMBER_0_FILL"/>
</g>

<g transform="matrix( 1, 0, 0, 1, 0,0) ">
<use xlink:href="#Sheep_Studios_Full_svg_svg164__Clip_Group__0_Layer2_0_MEMBER_16_MEMBER_0_FILL"/>
</g>

<g transform="matrix( 1, 0, 0, 1, 0,0) ">
<use xlink:href="#Sheep_Studios_Full_svg_svg164__Clip_Group__0_Layer2_0_MEMBER_17_MEMBER_0_FILL"/>
</g>

<g transform="matrix( 1, 0, 0, 1, 0,0) ">
<use xlink:href="#Sheep_Studios_Full_svg_svg164__Clip_Group__0_Layer2_0_MEMBER_18_MEMBER_0_FILL"/>
</g>

<g transform="matrix( 1, 0, 0, 1, 0,0) ">
<use xlink:href="#Sheep_Studios_Full_svg_svg164__Clip_Group__0_Layer2_0_MEMBER_19_MEMBER_0_FILL"/>
</g>

<g transform="matrix( 1, 0, 0, 1, 0,0) ">
<use xlink:href="#Sheep_Studios_Full_svg_svg164__Clip_Group__0_Layer2_0_MEMBER_20_MEMBER_0_FILL"/>
</g>

<g transform="matrix( 1, 0, 0, 1, 0,0) ">
<use xlink:href="#Sheep_Studios_Full_svg_svg164__Clip_Group__0_Layer2_0_MEMBER_21_MEMBER_0_FILL"/>
</g>

<g transform="matrix( 1, 0, 0, 1, 0,0) ">
<use xlink:href="#Sheep_Studios_Full_svg_svg164__Clip_Group__0_Layer2_0_MEMBER_22_MEMBER_0_FILL"/>
</g>

<g transform="matrix( 1, 0, 0, 1, 0,0) ">
<use xlink:href="#Sheep_Studios_Full_svg_svg164__Clip_Group__0_Layer2_0_MEMBER_23_MEMBER_0_FILL"/>
</g>

<g transform="matrix( 1, 0, 0, 1, 0,0) ">
<use xlink:href="#Sheep_Studios_Full_svg_svg164__Clip_Group__0_Layer2_0_MEMBER_24_MEMBER_0_FILL"/>
</g>

<g transform="matrix( 1, 0, 0, 1, 0,0) ">
<use xlink:href="#Sheep_Studios_Full_svg_svg164__Clip_Group__0_Layer2_0_MEMBER_25_MEMBER_0_FILL"/>
</g>

<g transform="matrix( 1, 0, 0, 1, 0,0) ">
<use xlink:href="#Sheep_Studios_Full_svg_svg164__Clip_Group__0_Layer2_0_MEMBER_26_MEMBER_0_FILL"/>
</g>

<g transform="matrix( 1, 0, 0, 1, 0,0) ">
<use xlink:href="#Sheep_Studios_Full_svg_svg164__Clip_Group__0_Layer2_0_MEMBER_27_MEMBER_0_FILL"/>
</g>

<g transform="matrix( 1, 0, 0, 1, 0,0) ">
<use xlink:href="#Sheep_Studios_Full_svg_svg164__Clip_Group__0_Layer2_0_MEMBER_28_MEMBER_0_FILL"/>
</g>

<g transform="matrix( 1, 0, 0, 1, 0,0) ">
<use xlink:href="#Sheep_Studios_Full_svg_svg164__Clip_Group__0_Layer2_0_MEMBER_29_MEMBER_0_FILL"/>
</g>

<g transform="matrix( 1, 0, 0, 1, 0,0) ">
<use xlink:href="#Sheep_Studios_Full_svg_svg164__Clip_Group__0_Layer2_0_MEMBER_30_MEMBER_0_FILL"/>
</g>

<g transform="matrix( 1, 0, 0, 1, 0,0) ">
<use xlink:href="#Sheep_Studios_Full_svg_svg164__Clip_Group__0_Layer2_0_MEMBER_31_MEMBER_0_FILL"/>
</g>

<g transform="matrix( 1, 0, 0, 1, 0,0) ">
<use xlink:href="#Sheep_Studios_Full_svg_svg164__Clip_Group__0_Layer2_0_MEMBER_32_MEMBER_0_FILL"/>
</g>

<g transform="matrix( 1, 0, 0, 1, 0,0) ">
<use xlink:href="#Sheep_Studios_Full_svg_svg164__Clip_Group__0_Layer2_0_MEMBER_33_MEMBER_0_FILL"/>
</g>

<g transform="matrix( 1, 0, 0, 1, 0,0) ">
<use xlink:href="#Sheep_Studios_Full_svg_svg164__Clip_Group__0_Layer2_0_MEMBER_34_MEMBER_0_FILL"/>
</g>

<g transform="matrix( 1, 0, 0, 1, 0,0) ">
<use xlink:href="#Sheep_Studios_Full_svg_svg164__Clip_Group__0_Layer2_0_MEMBER_35_MEMBER_0_FILL"/>
</g>

<g transform="matrix( 1, 0, 0, 1, 0,0) ">
<use xlink:href="#Sheep_Studios_Full_svg_svg164__Clip_Group__0_Layer2_0_MEMBER_36_MEMBER_0_FILL"/>
</g>

<g transform="matrix( 1, 0, 0, 1, 0,0) ">
<use xlink:href="#Sheep_Studios_Full_svg_svg164__Clip_Group__0_Layer2_0_MEMBER_37_MEMBER_0_FILL"/>
</g>

<g transform="matrix( 1, 0, 0, 1, 0,0) ">
<use xlink:href="#Sheep_Studios_Full_svg_svg164__Clip_Group__0_Layer2_0_MEMBER_38_MEMBER_0_FILL"/>
</g>

<g transform="matrix( 1, 0, 0, 1, 0,0) ">
<use xlink:href="#Sheep_Studios_Full_svg_svg164__Clip_Group__0_Layer2_0_MEMBER_39_MEMBER_0_FILL"/>
</g>

<g transform="matrix( 1, 0, 0, 1, 0,0) ">
<use xlink:href="#Sheep_Studios_Full_svg_svg164__Clip_Group__0_Layer2_0_MEMBER_40_MEMBER_0_FILL"/>
</g>

<g transform="matrix( 1, 0, 0, 1, 0,0) ">
<use xlink:href="#Sheep_Studios_Full_svg_svg164__Clip_Group__0_Layer2_0_MEMBER_41_MEMBER_0_FILL"/>
</g>

<g transform="matrix( 1, 0, 0, 1, 0,0) ">
<use xlink:href="#Sheep_Studios_Full_svg_svg164__Clip_Group__0_Layer2_0_MEMBER_42_MEMBER_0_FILL"/>
</g>

<g transform="matrix( 1, 0, 0, 1, 0,0) ">
<use xlink:href="#Sheep_Studios_Full_svg_svg164__Clip_Group__0_Layer2_0_MEMBER_43_MEMBER_0_FILL"/>
</g>

<g transform="matrix( 1, 0, 0, 1, 0,0) ">
<use xlink:href="#Sheep_Studios_Full_svg_svg164__Clip_Group__0_Layer2_0_MEMBER_44_MEMBER_0_FILL"/>
</g>

<g transform="matrix( 1, 0, 0, 1, 0,0) ">
<use xlink:href="#Sheep_Studios_Full_svg_svg164__Clip_Group__0_Layer2_0_MEMBER_45_MEMBER_0_FILL"/>
</g>

<g transform="matrix( 1, 0, 0, 1, 0,0) ">
<use xlink:href="#Sheep_Studios_Full_svg_svg164__Clip_Group__0_Layer2_0_MEMBER_46_MEMBER_0_FILL"/>
</g>

<g transform="matrix( 1, 0, 0, 1, 0,0) ">
<use xlink:href="#Sheep_Studios_Full_svg_svg164__Clip_Group__0_Layer2_0_MEMBER_47_MEMBER_0_FILL"/>
</g>

<g transform="matrix( 1, 0, 0, 1, 0,0) ">
<use xlink:href="#Sheep_Studios_Full_svg_svg164__Clip_Group__0_Layer2_0_MEMBER_48_MEMBER_0_FILL"/>
</g>

<g transform="matrix( 1, 0, 0, 1, 0,0) ">
<use xlink:href="#Sheep_Studios_Full_svg_svg164__Clip_Group__0_Layer2_0_MEMBER_49_MEMBER_0_FILL"/>
</g>

<g transform="matrix( 1, 0, 0, 1, 0,0) ">
<use xlink:href="#Sheep_Studios_Full_svg_svg164__Clip_Group__0_Layer2_0_MEMBER_50_MEMBER_0_FILL"/>
</g>

<g transform="matrix( 1, 0, 0, 1, 0,0) ">
<use xlink:href="#Sheep_Studios_Full_svg_svg164__Clip_Group__0_Layer2_0_MEMBER_51_MEMBER_0_FILL"/>
</g>

<g transform="matrix( 1, 0, 0, 1, 0,0) ">
<use xlink:href="#Sheep_Studios_Full_svg_svg164__Clip_Group__0_Layer2_0_MEMBER_52_MEMBER_0_FILL"/>
</g>

<g transform="matrix( 1, 0, 0, 1, 0,0) ">
<use xlink:href="#Sheep_Studios_Full_svg_svg164__Clip_Group__0_Layer2_0_MEMBER_53_MEMBER_0_FILL"/>
</g>

<g transform="matrix( 1, 0, 0, 1, 0,0) ">
<use xlink:href="#Sheep_Studios_Full_svg_svg164__Clip_Group__0_Layer2_0_MEMBER_54_MEMBER_0_FILL"/>
</g>

<g transform="matrix( 1, 0, 0, 1, 0,0) ">
<use xlink:href="#Sheep_Studios_Full_svg_svg164__Clip_Group__0_Layer2_0_MEMBER_55_MEMBER_0_FILL"/>
</g>

<g transform="matrix( 1, 0, 0, 1, 0,0) ">
<use xlink:href="#Sheep_Studios_Full_svg_svg164__Clip_Group__0_Layer2_0_MEMBER_56_MEMBER_0_FILL"/>
</g>

<g transform="matrix( 1, 0, 0, 1, 0,0) ">
<use xlink:href="#Sheep_Studios_Full_svg_svg164__Clip_Group__0_Layer2_0_MEMBER_57_MEMBER_0_FILL"/>
</g>

<g transform="matrix( 1, 0, 0, 1, 0,0) ">
<use xlink:href="#Sheep_Studios_Full_svg_svg164__Clip_Group__0_Layer2_0_MEMBER_58_MEMBER_0_FILL"/>
</g>

<g transform="matrix( 1, 0, 0, 1, 0,0) ">
<use xlink:href="#Sheep_Studios_Full_svg_svg164__Clip_Group__0_Layer2_0_MEMBER_59_MEMBER_0_FILL"/>
</g>

<g transform="matrix( 1, 0, 0, 1, 0,0) ">
<use xlink:href="#Sheep_Studios_Full_svg_svg164__Clip_Group__0_Layer2_0_MEMBER_60_MEMBER_0_FILL"/>
</g>

<g transform="matrix( 1, 0, 0, 1, 0,0) ">
<use xlink:href="#Sheep_Studios_Full_svg_svg164__Clip_Group__0_Layer2_0_MEMBER_61_MEMBER_0_FILL"/>
</g>

<g transform="matrix( 1, 0, 0, 1, 0,0) ">
<use xlink:href="#Sheep_Studios_Full_svg_svg164__Clip_Group__0_Layer2_0_MEMBER_62_MEMBER_0_FILL"/>
</g>

<g transform="matrix( 1, 0, 0, 1, 0,0) ">
<use xlink:href="#Sheep_Studios_Full_svg_svg164__Clip_Group__0_Layer2_0_MEMBER_63_MEMBER_0_FILL"/>
</g>

<g transform="matrix( 1, 0, 0, 1, 0,0) ">
<use xlink:href="#Sheep_Studios_Full_svg_svg164__Clip_Group__0_Layer2_0_MEMBER_64_MEMBER_0_FILL"/>
</g>

<g transform="matrix( 1, 0, 0, 1, 0,0) ">
<use xlink:href="#Sheep_Studios_Full_svg_svg164__Clip_Group__0_Layer2_0_MEMBER_65_MEMBER_0_FILL"/>
</g>

<g transform="matrix( 1, 0, 0, 1, 0,0) ">
<use xlink:href="#Sheep_Studios_Full_svg_svg164__Clip_Group__0_Layer2_0_MEMBER_66_MEMBER_0_FILL"/>
</g>

<g transform="matrix( 1, 0, 0, 1, 0,0) ">
<use xlink:href="#Sheep_Studios_Full_svg_svg164__Clip_Group__0_Layer2_0_MEMBER_67_MEMBER_0_FILL"/>
</g>

<g transform="matrix( 1, 0, 0, 1, 0,0) ">
<use xlink:href="#Sheep_Studios_Full_svg_svg164__Clip_Group__0_Layer2_0_MEMBER_68_MEMBER_0_FILL"/>
</g>

<g transform="matrix( 1, 0, 0, 1, 0,0) ">
<use xlink:href="#Sheep_Studios_Full_svg_svg164__Clip_Group__0_Layer2_0_MEMBER_69_MEMBER_0_FILL"/>
</g>
</g>
</g>
</svg>
