
<svg xmlns="http://www.w3.org/2000/svg" version="1.1" xmlns:xlink="http://www.w3.org/1999/xlink" preserveAspectRatio="none" x="0px" y="0px" width="73px" height="90px" viewBox="0 0 73 90">
<defs>
<g id="Mask_Sheep_Studios_Logo_svg_svg462__Clip_Group__0_2_MASK_0_FILL">
<path fill="#FFFFFF" stroke="none" d="
M 383.95 383.95
L 383.95 0 0 0 0 383.95 383.95 383.95 Z"/>
</g>

<g id="Sheep_Studios_Logo_svg_svg462__Clip_Group__0_Layer2_0_MEMBER_0_MEMBER_0_FILL">
<path fill="#231F20" stroke="none" d="
M 207.6 156.5
Q 209.65 156.8 210.75 157.45 213.55 158.85 215 162.2 216.15 164.75 215.7 167.7
L 215.6 168.55 216.3 169.1
Q 218.5 170.55 220.1 172.6 221.9 175 222.95 177.4 225 182.2 223.25 185.5 222.2 187.35 220.25 188.5
L 218.8 189.3 219.85 190.6
Q 221.8 193.05 222.55 196.1 224.1 202 221.4 206.15 219.95 208.35 217.3 209.75
L 216.45 210.2 216.5 211.15
Q 216.9 214.75 215.85 217.55 214.8 220.4 212.65 221.5 211.5 222.1 210 222.15
L 208.95 222.15 208.65 223.2
Q 207.9 225.9 206.2 227.05
L 205.75 227.3 205.75 221.65
Q 206.6 221 207.65 219.95 208.05 219.45 208.05 218.9 208.05 218.4 207.65 217.9 207.15 217.5 206.65 217.5
L 206.6 217.5
Q 206.1 217.5 205.6 217.9 203.75 219.8 201.5 221.1 197.9 223.15 194.65 222.45 193.75 222.25 192.65 221.75 192.1 221.5 191.55 221.65 191 221.85 190.75 222.4 190.5 222.95 190.65 223.5 190.85 224.05 191.4 224.3 192.55 224.9 193.8 225.2
L 193.8 227.85
Q 192.45 227.85 191.55 227.7 188.45 227.25 186.5 225.65 184.15 223.8 183.25 220.45 183.15 222.6 183.95 224.6 184.5 225.9 185.4 227 180.75 227.15 176.65 225.85
L 176.65 223.8
Q 177.6 223.55 177.75 222.6 177.85 222 177.5 221.55 177.15 221.05 176.55 220.95
L 172.5 220.05
Q 169.4 219.15 167.85 218.15 166.6 217.35 165.65 216.35 165.3 215.9 164.65 215.9 164.1 215.85 163.6 216.25 163.2 216.65 163.15 217.3 163.15 217.9 163.55 218.3
L 164.7 219.4 164.65 222.3
Q 162.4 221.45 160.3 219.6 158.45 217.9 157.05 215.25 157.5 217.65 158.9 219.85 161.05 223.2 164.7 224.6
L 164.7 237.9
Q 164.7 240.1 166.25 241.65 167.8 243.2 170 243.2
L 171.3 243.2
Q 173.5 243.2 175.1 241.65 176.65 240.1 176.65 237.9
L 176.65 228.85
Q 179.4 229.45 182.35 229.6 185.05 229.7 188 229.25 189.05 229.95 190.55 230.4
L 190.95 230.55 193.8 230.75 193.8 237.9
Q 193.8 240.1 195.35 241.65 196.95 243.2 199.1 243.2
L 200.45 243.2
Q 202.65 243.2 204.2 241.65 205.75 240.1 205.75 237.9
L 205.75 230.3
Q 206.95 230.05 207.85 229.4 210.05 227.8 211.1 224.95 212.65 224.75 214 224.05 216.75 222.6 218.25 219.3 219.7 216.05 219.45 211.85 222.2 210.15 223.8 207.7 227.2 202.55 225.35 195.35 224.65 192.5 223 190.1 224.9 188.6 225.8 186.85 228.1 182.55 225.7 176.65 224.4 173.45 222.35 170.8 220.8 168.8 218.65 167.2 218.85 163.9 217.65 161.05 216.4 158.1 214.1 156.2 213 155.35 212.05 154.85 208.9 153.35 204.6 154.55 201.35 155.5 198.8 158.35 203.3 155.9 207.6 156.5 Z"/>
</g>

<g id="Sheep_Studios_Logo_svg_svg462__Clip_Group__0_Layer2_0_MEMBER_1_MEMBER_0_FILL">
<path fill="#231F20" stroke="none" d="
M 200.5 173.15
Q 200.15 171.55 198.55 170.7 197 169.9 195.15 170.3 193.45 170.7 192.35 172 188.25 168.35 182.05 168.35 175.8 168.35 171.7 172 170.6 170.65 168.95 170.3 167.05 169.9 165.5 170.7 163.95 171.55 163.55 173.15 163.2 174.75 164.25 176.2 165.3 177.6 167.15 178.05
L 167.95 178.15
Q 167.65 179.4 167.4 181.1
L 167.4 195.95
Q 167.4 197.8 168 199.75 168.95 202.95 171.25 205.25 174.65 208.6 179.35 209 180.1 209.1 180.65 208.6 180.9 208.35 180.9 207.2
L 180.9 203.05 178.65 202.9
Q 178.1 202.9 178.05 202.15 178.05 201.35 178.65 201.35
L 184.9 201.35
Q 185.1 201.4 185.5 201.45 186 201.6 185.9 202.25 185.8 202.9 185.3 202.9
L 182.8 203.05 182.8 207.2
Q 182.8 208.4 183.05 208.6 183.5 209.05 184.2 209.05
L 184.3 209.05
Q 189.4 208.65 192.8 205.25 196.65 201.35 196.65 195.95
L 196.65 181.1
Q 196.55 179.65 196.1 178.15
L 196.9 178.05
Q 198.8 177.6 199.85 176.2 200.9 174.75 200.5 173.15 Z"/>
</g>

<g id="Layer0_0_MEMBER_1_FILL">
<path fill="#231F20" stroke="none" d="
M 230 237.3
L 228.4 237.3 227.5 241.35 226.55 237.3 224.95 237.3 224.95 243.15 225.9 243.15 225.9 238.5 227 243.15 227.95 243.15 229 238.5 229 243.15 230 243.15 230 237.3
M 221.8 238.35
L 221.8 243.15 222.85 243.15 222.85 238.35 224.35 238.35 224.35 237.3 220.25 237.3 220.25 238.35 221.8 238.35 Z"/>
</g>
</defs>

<g transform="matrix( 1.0006866455078125, 0, 0, 1.00897216796875, -157.15,-155.4) ">
<mask id="Mask_Mask_1">
<g transform="matrix( 1, 0, 0, 1, 0,0) ">
<use xlink:href="#Mask_Sheep_Studios_Logo_svg_svg462__Clip_Group__0_2_MASK_0_FILL"/>
</g>
</mask>

<g mask="url(#Mask_Mask_1)">
<g transform="matrix( 1, 0, 0, 1, 0,0) ">
<use xlink:href="#Sheep_Studios_Logo_svg_svg462__Clip_Group__0_Layer2_0_MEMBER_0_MEMBER_0_FILL"/>
</g>

<g transform="matrix( 1, 0, 0, 1, 0,0) ">
<use xlink:href="#Sheep_Studios_Logo_svg_svg462__Clip_Group__0_Layer2_0_MEMBER_1_MEMBER_0_FILL"/>
</g>
</g>
</g>

<g transform="matrix( 1.0006866455078125, 0, 0, 1.00897216796875, -157.15,-155.45) ">
<use xlink:href="#Layer0_0_MEMBER_1_FILL"/>
</g>
</svg>
